<svg xmlns="http://www.w3.org/2000/svg" aria-hidden="true"
    style="position:absolute;width:0;height:0;overflow:hidden">
    <defs>
        <symbol id="google-icon" viewBox="0 0 31 32">
            <path fill="#4285f4"
                d="M28.801 16.299c0-1.105-.092-1.911-.29-2.748H15.635v4.988h7.558c-.152 1.239-.975 3.106-2.804 4.36l-.026.167 4.071 3.091.282.028c2.59-2.344 4.084-5.794 4.084-9.886z"
                style="fill:var(--color1, #4285f4)" />
            <path fill="#34a853"
                d="M15.634 29.44c3.703 0 6.811-1.195 9.082-3.256l-4.328-3.285c-1.158.791-2.712 1.344-4.754 1.344a8.24 8.24 0 0 1-7.802-5.585l-.161.013-4.233 3.211-.055.151c2.255 4.39 6.888 7.407 12.251 7.407z"
                style="fill:var(--color2, #34a853)" />
            <path fill="#fbbc05"
                d="M7.834 18.658c-.29-.836-.457-1.732-.457-2.658s.168-1.822.442-2.658l-.008-.178-4.286-3.262-.14.065C2.456 11.789 1.922 13.835 1.922 16s.533 4.211 1.463 6.033l4.449-3.375z"
                style="fill:var(--color3, #fbbc05)" />
            <path fill="#eb4335"
                d="M15.634 7.757c2.575 0 4.312 1.09 5.303 2.001l3.87-3.704c-2.377-2.165-5.47-3.494-9.173-3.494-5.364 0-9.996 3.016-12.252 7.407l4.434 3.375c1.112-3.241 4.191-5.585 7.817-5.585z"
                style="fill:var(--color4, #eb4335)" />
        </symbol>
        <symbol id="facebook-icon" viewBox="0 0 31 32">
            <path fill="#0c82ee"
                d="M29.091 16c0 7.498-6.078 13.576-13.576 13.576S1.939 23.498 1.939 16 8.017 2.424 15.515 2.424 29.091 8.502 29.091 16z"
                style="fill:var(--color5, #0c82ee)" />
            <path fill="#fff"
                d="m20.571 20.152.603-3.832h-3.773v-2.485c0-1.049.526-2.071 2.216-2.071h1.716V8.502s-1.557-.259-3.045-.259c-3.108 0-5.138 1.836-5.138 5.157v2.92H9.696v3.832h3.454v9.263c.693.106 1.403.16 2.125.16s1.432-.054 2.125-.16v-9.263h3.169z"
                style="fill:var(--color6, #fff)" />
        </symbol>
        <symbol id="close-icon" viewBox="0 0 32 32">
            <path
                d="M30.933 4.075l-3.008-3.008-11.925 11.925-11.926-11.925-3.008 3.008 11.926 11.925-11.925 11.925 3.008 3.008 11.925-11.925 11.925 11.925 3.008-3.008-11.925-11.925 11.925-11.925z"></path>
        </symbol>
        <symbol id="question-icon" viewBox="0 0 32 32">
            <path
                d="M16 3.2c-7.066 0-12.8 5.734-12.8 12.8s5.734 12.8 12.8 12.8 12.8-5.734 12.8-12.8-5.734-12.8-12.8-12.8zM17.28 24.96h-2.56v-2.56h2.56v2.56zM19.93 15.040l-1.152 1.178c-0.922 0.934-1.498 1.702-1.498 3.622h-2.56v-0.64c0-1.408 0.576-2.688 1.498-3.622l1.587-1.613c0.474-0.461 0.755-1.101 0.755-1.805 0-1.408-1.152-2.56-2.56-2.56s-2.56 1.152-2.56 2.56h-2.56c0-2.829 2.291-5.12 5.12-5.12s5.12 2.291 5.12 5.12c0 1.126-0.461 2.15-1.19 2.88z"></path>
        </symbol>
    </defs>
</svg>